<svg xmlns="http://www.w3.org/2000/svg" xmlns:xlink="http://www.w3.org/1999/xlink" width="1920" zoomAndPan="magnify" viewBox="0 0 1440 1109.999945" height="1480" preserveAspectRatio="xMidYMid meet" version="1.0"><defs><clipPath id="be65d75a20"><path d="M 254 43.230469 L 1186.074219 43.230469 L 1186.074219 976 L 254 976 Z M 254 43.230469 " clip-rule="nonzero"/></clipPath><clipPath id="682980221e"><path d="M 448 717 L 992 717 L 992 1066.980469 L 448 1066.980469 Z M 448 717 " clip-rule="nonzero"/></clipPath></defs><g clip-path="url(#be65d75a20)"><path fill="#f366ba" d="M 254.074219 509.542969 C 254.074219 767.011719 462.714844 975.707031 720.089844 975.707031 C 977.476562 975.707031 1186.105469 767.011719 1186.105469 509.542969 C 1186.105469 252.078125 977.476562 43.378906 720.089844 43.378906 C 462.707031 43.371094 254.074219 252.078125 254.074219 509.542969 " fill-opacity="1" fill-rule="nonzero"/></g><path fill="#23255d" d="M 924.753906 387.90625 L 924.753906 835.28125 L 528.410156 835.28125 L 528.410156 406.367188 L 924.753906 387.90625 " fill-opacity="1" fill-rule="nonzero"/><path fill="#23255d" d="M 915.347656 472.027344 C 915.347656 472.027344 902.558594 581.851562 973.773438 580.367188 C 973.773438 580.367188 942.675781 618.953125 914.457031 602.628906 C 886.238281 586.304688 899.917969 489.835938 899.917969 489.835938 L 915.914062 464.605469 " fill-opacity="1" fill-rule="nonzero"/><g clip-path="url(#682980221e)"><path fill="#ffffff" d="M 991.964844 976.984375 C 968.9375 994.199219 944.191406 1009.28125 918.046875 1021.894531 C 914.074219 1023.824219 910.066406 1025.664062 906.0625 1027.476562 C 849.265625 1052.941406 786.359375 1067.101562 720.097656 1067.101562 C 653.839844 1067.101562 590.933594 1052.941406 534.167969 1027.476562 C 530.101562 1025.664062 526.097656 1023.824219 522.148438 1021.894531 C 496.007812 1009.25 471.261719 994.199219 448.234375 976.984375 C 452.269531 886.867188 500.132812 808.152344 571.023438 761.667969 C 613.839844 733.558594 665.054688 717.234375 720.097656 717.234375 C 728.496094 717.234375 736.804688 717.617188 744.964844 718.359375 C 790.574219 722.488281 832.886719 737.832031 869.175781 761.667969 C 901.816406 783.070312 929.5625 811.296875 950.390625 844.304688 C 974.84375 883.039062 989.769531 928.363281 991.964844 976.984375 " fill-opacity="1" fill-rule="nonzero"/></g><path fill="#fbd5c0" d="M 869.175781 761.667969 C 865.023438 793.101562 851.164062 821.507812 830.660156 843.710938 C 803.183594 873.480469 763.835938 892.152344 720.097656 892.152344 C 650.042969 892.152344 591.171875 844.214844 574.464844 779.328125 C 572.980469 773.570312 571.824219 767.664062 571.023438 761.667969 C 613.839844 733.558594 665.054688 717.234375 720.097656 717.234375 C 728.496094 717.234375 736.804688 717.589844 744.996094 718.359375 C 746.417969 718.480469 747.84375 718.628906 749.238281 718.777344 C 750.128906 718.867188 751.019531 718.953125 751.878906 719.074219 C 752.859375 719.164062 753.835938 719.3125 754.789062 719.429688 C 755.378906 719.488281 756.003906 719.578125 756.597656 719.667969 C 757.457031 719.757812 758.347656 719.90625 759.238281 720.023438 C 759.921875 720.113281 760.601562 720.230469 761.316406 720.320312 C 761.910156 720.410156 762.503906 720.5 763.097656 720.617188 C 764.105469 720.765625 765.082031 720.945312 766.09375 721.09375 C 770.425781 721.832031 774.726562 722.664062 778.972656 723.613281 L 781.820312 724.238281 C 782.355469 724.386719 782.917969 724.503906 783.453125 724.652344 C 784.460938 724.890625 785.5 725.128906 786.476562 725.394531 C 786.65625 725.425781 786.804688 725.457031 786.921875 725.484375 C 788.199219 725.8125 789.476562 726.136719 790.722656 726.492188 C 792.085938 726.820312 793.421875 727.207031 794.726562 727.59375 C 796.242188 728.007812 797.722656 728.453125 799.238281 728.898438 C 800.394531 729.253906 801.550781 729.609375 802.710938 729.996094 C 803.453125 730.234375 804.222656 730.472656 804.933594 730.710938 C 806.152344 731.09375 807.367188 731.511719 808.554688 731.925781 C 810.039062 732.429688 811.492188 732.933594 812.945312 733.46875 C 813.066406 733.527344 813.15625 733.558594 813.242188 733.589844 C 814.757812 734.121094 816.242188 734.6875 817.722656 735.25 C 818.820312 735.695312 819.949219 736.109375 821.078125 736.585938 C 824.015625 737.742188 826.894531 738.960938 829.742188 740.207031 L 833.480469 741.898438 C 834.609375 742.402344 835.734375 742.9375 836.863281 743.472656 C 837.902344 743.976562 838.910156 744.453125 839.917969 744.957031 C 840.867188 745.402344 841.789062 745.875 842.707031 746.351562 C 843.300781 746.648438 843.925781 746.945312 844.519531 747.273438 C 846.980469 748.519531 849.386719 749.824219 851.757812 751.128906 C 852.621094 751.605469 853.507812 752.109375 854.339844 752.585938 C 854.90625 752.910156 855.4375 753.207031 855.972656 753.503906 L 857.992188 754.691406 L 860.039062 755.9375 L 861.371094 756.742188 C 862.648438 757.484375 863.894531 758.253906 865.140625 759.054688 C 866.507812 759.917969 867.839844 760.777344 869.175781 761.667969 " fill-opacity="1" fill-rule="nonzero"/><path fill="#fbd5c0" d="M 772.503906 656.234375 L 772.503906 759.351562 C 772.503906 785.445312 751.167969 806.816406 725.113281 806.816406 L 715.085938 806.816406 C 689.03125 806.816406 667.726562 785.445312 667.726562 759.351562 L 667.726562 656.234375 C 667.726562 630.144531 689.03125 608.804688 715.085938 608.804688 L 725.113281 608.804688 C 751.167969 608.804688 772.503906 630.144531 772.503906 656.234375 " fill-opacity="1" fill-rule="nonzero"/><path fill="#f8a29e" d="M 772.503906 656.234375 L 772.503906 710.792969 C 756.921875 719.460938 740.394531 724.503906 723.628906 724.503906 C 703.839844 724.503906 684.964844 718.984375 667.726562 709.398438 L 667.726562 656.234375 C 667.726562 630.144531 689.03125 608.804688 715.085938 608.804688 L 725.113281 608.804688 C 751.167969 608.804688 772.503906 630.144531 772.503906 656.234375 " fill-opacity="1" fill-rule="nonzero"/><path fill="#fbd5c0" d="M 881.667969 592.300781 C 881.667969 592.300781 912.707031 581.734375 932.527344 547.121094 C 954.070312 509.542969 940.539062 486.125 936.269531 481.050781 C 924.605469 467.1875 906.59375 476.09375 903.628906 481.050781 C 900.660156 486.007812 857.695312 564.070312 881.667969 592.300781 " fill-opacity="1" fill-rule="nonzero"/><path fill="#f8a29e" d="M 912.085938 493.367188 C 912.085938 493.367188 931.789062 495.890625 924.875 523.585938 C 917.929688 551.308594 899.742188 562.261719 874.992188 576.417969 C 850.273438 590.578125 887.367188 499.007812 912.085938 493.367188 " fill-opacity="1" fill-rule="nonzero"/><path fill="#fbd5c0" d="M 566.601562 592.300781 C 566.601562 592.300781 535.5625 581.734375 515.742188 547.121094 C 494.167969 509.542969 507.699219 486.125 511.972656 481.050781 C 523.632812 467.1875 541.644531 476.09375 544.613281 481.050781 C 547.582031 486.007812 590.578125 564.070312 566.601562 592.300781 " fill-opacity="1" fill-rule="nonzero"/><path fill="#f8a29e" d="M 536.15625 493.367188 C 536.15625 493.367188 516.484375 495.890625 523.398438 523.585938 C 530.308594 551.308594 548.53125 562.261719 573.246094 576.417969 C 597.996094 590.578125 560.902344 499.007812 536.15625 493.367188 " fill-opacity="1" fill-rule="nonzero"/><path fill="#fbd5c0" d="M 912.085938 475.082031 C 912.085938 361.308594 828.140625 269.058594 724.550781 269.058594 C 620.992188 269.058594 536.988281 361.308594 536.988281 475.082031 C 536.988281 588.855469 620.992188 707.792969 724.550781 707.792969 C 821.878906 707.792969 912.085938 587.90625 912.085938 475.082031 " fill-opacity="1" fill-rule="nonzero"/><path fill="#23255d" d="M 741.433594 392 C 741.433594 392 776.714844 505.539062 909.414062 494.289062 C 909.414062 494.289062 932.589844 460.777344 924.753906 387.90625 C 915.914062 305.773438 843.183594 236.671875 724.550781 261.398438 C 724.550781 261.398438 713.71875 319.785156 741.433594 392 " fill-opacity="1" fill-rule="nonzero"/><path fill="#23255d" d="M 747.367188 269.058594 C 747.367188 269.058594 752.292969 247.566406 734.492188 230.738281 C 716.6875 213.90625 480.933594 248.457031 536.988281 475.082031 C 536.988281 475.082031 591.941406 339.554688 737.457031 327.679688 L 747.367188 269.058594 " fill-opacity="1" fill-rule="nonzero"/></svg>