<svg xmlns="http://www.w3.org/2000/svg" xmlns:xlink="http://www.w3.org/1999/xlink" width="1920" zoomAndPan="magnify" viewBox="0 0 1440 1109.999945" height="1480" preserveAspectRatio="xMidYMid meet" version="1.0"><defs><clipPath id="3cf68c7648"><path d="M 254 43.230469 L 1186.074219 43.230469 L 1186.074219 976 L 254 976 Z M 254 43.230469 " clip-rule="nonzero"/></clipPath><clipPath id="03371b5fc4"><path d="M 448 717 L 993 717 L 993 1066.980469 L 448 1066.980469 Z M 448 717 " clip-rule="nonzero"/></clipPath></defs><g clip-path="url(#3cf68c7648)"><path fill="#1abde1" d="M 1186.207031 509.441406 C 1186.207031 766.851562 977.554688 975.503906 720.144531 975.503906 C 462.734375 975.503906 254.082031 766.851562 254.082031 509.441406 C 254.074219 252.03125 462.734375 43.378906 720.144531 43.378906 C 977.554688 43.371094 1186.207031 252.03125 1186.207031 509.441406 " fill-opacity="1" fill-rule="nonzero"/></g><g clip-path="url(#03371b5fc4)"><path fill="#ffffff" d="M 992.039062 976.78125 C 969.011719 993.992188 944.261719 1009.070312 918.117188 1021.679688 C 914.140625 1023.609375 910.132812 1025.449219 906.125 1027.261719 C 849.328125 1052.722656 786.414062 1066.878906 720.144531 1066.878906 C 653.878906 1066.878906 590.964844 1052.722656 534.195312 1027.261719 C 530.128906 1025.449219 526.125 1023.609375 522.175781 1021.679688 C 496.03125 1009.039062 471.28125 993.992188 448.253906 976.78125 C 452.289062 886.683594 500.15625 807.984375 571.054688 761.511719 C 613.875 733.410156 665.097656 717.085938 720.144531 717.085938 C 728.542969 717.085938 736.855469 717.472656 745.015625 718.214844 C 790.628906 722.339844 832.945312 737.683594 869.238281 761.511719 C 901.882812 782.90625 929.628906 811.128906 950.460938 844.128906 C 974.914062 882.855469 989.84375 928.171875 992.039062 976.78125 " fill-opacity="1" fill-rule="nonzero"/></g><path fill="#fbd5c0" d="M 869.238281 761.511719 C 865.085938 792.9375 851.226562 821.339844 830.71875 843.535156 C 803.238281 873.300781 763.890625 891.96875 720.144531 891.96875 C 650.082031 891.96875 591.203125 844.039062 574.496094 779.167969 C 573.011719 773.410156 571.855469 767.507812 571.054688 761.511719 C 613.875 733.410156 665.097656 717.085938 720.144531 717.085938 C 728.542969 717.085938 736.855469 717.441406 745.042969 718.214844 C 746.46875 718.332031 747.894531 718.480469 749.289062 718.628906 C 750.179688 718.71875 751.070312 718.808594 751.929688 718.925781 C 752.910156 719.015625 753.886719 719.164062 754.835938 719.28125 C 755.429688 719.34375 756.054688 719.429688 756.648438 719.519531 C 757.507812 719.609375 758.398438 719.757812 759.289062 719.875 C 759.972656 719.964844 760.652344 720.082031 761.367188 720.171875 C 761.960938 720.261719 762.554688 720.351562 763.148438 720.46875 C 764.15625 720.617188 765.136719 720.796875 766.144531 720.945312 C 770.476562 721.6875 774.78125 722.515625 779.023438 723.46875 L 781.871094 724.089844 C 782.40625 724.238281 782.96875 724.355469 783.503906 724.503906 C 784.515625 724.742188 785.550781 724.980469 786.53125 725.246094 C 786.710938 725.277344 786.859375 725.308594 786.976562 725.335938 C 788.253906 725.664062 789.527344 725.988281 790.773438 726.34375 C 792.140625 726.671875 793.476562 727.058594 794.78125 727.445312 C 796.296875 727.859375 797.777344 728.304688 799.292969 728.75 C 800.449219 729.105469 801.605469 729.460938 802.765625 729.847656 C 803.507812 730.085938 804.277344 730.320312 804.988281 730.558594 C 806.207031 730.945312 807.421875 731.359375 808.609375 731.777344 C 810.09375 732.28125 811.546875 732.785156 813.003906 733.320312 C 813.121094 733.378906 813.210938 733.410156 813.300781 733.4375 C 814.8125 733.972656 816.296875 734.535156 817.78125 735.101562 C 818.878906 735.546875 820.007812 735.960938 821.132812 736.433594 C 824.070312 737.59375 826.949219 738.808594 829.800781 740.054688 L 833.539062 741.746094 C 834.667969 742.25 835.792969 742.785156 836.921875 743.320312 C 837.960938 743.824219 838.96875 744.300781 839.976562 744.804688 C 840.929688 745.25 841.847656 745.722656 842.769531 746.199219 C 843.363281 746.496094 843.984375 746.792969 844.578125 747.117188 C 847.042969 748.363281 849.445312 749.671875 851.820312 750.976562 C 852.679688 751.453125 853.570312 751.957031 854.402344 752.429688 C 854.964844 752.757812 855.5 753.054688 856.03125 753.351562 L 858.050781 754.539062 L 860.097656 755.785156 L 861.433594 756.585938 C 862.710938 757.328125 863.957031 758.097656 865.203125 758.898438 C 866.566406 759.761719 867.902344 760.621094 869.238281 761.511719 " fill-opacity="1" fill-rule="nonzero"/><path fill="#fbd5c0" d="M 786.414062 642.453125 L 786.414062 772.816406 C 786.414062 805.789062 759.4375 832.792969 726.46875 832.792969 L 713.824219 832.792969 C 680.855469 832.792969 653.910156 805.789062 653.910156 772.816406 L 653.910156 642.453125 C 653.910156 609.480469 680.855469 582.535156 713.824219 582.535156 L 726.46875 582.535156 C 759.4375 582.535156 786.414062 609.480469 786.414062 642.453125 " fill-opacity="1" fill-rule="nonzero"/><path fill="#f8a29e" d="M 786.414062 642.453125 L 786.414062 711.449219 C 766.707031 722.398438 745.816406 728.75 724.597656 728.75 C 699.582031 728.75 675.722656 721.804688 653.910156 709.667969 L 653.910156 642.453125 C 653.910156 609.480469 680.855469 582.535156 713.824219 582.535156 L 726.46875 582.535156 C 759.4375 582.535156 786.414062 609.480469 786.414062 642.453125 " fill-opacity="1" fill-rule="nonzero"/><path fill="#fbd5c0" d="M 881.734375 592.179688 C 881.734375 592.179688 912.773438 581.617188 932.597656 547.011719 C 954.140625 509.441406 940.609375 486.027344 936.335938 480.953125 C 924.675781 467.09375 906.660156 476 903.691406 480.953125 C 900.726562 485.910156 857.753906 563.957031 881.734375 592.179688 " fill-opacity="1" fill-rule="nonzero"/><path fill="#f8a29e" d="M 912.152344 493.269531 C 912.152344 493.269531 931.855469 495.792969 924.941406 523.480469 C 917.996094 551.199219 899.804688 562.148438 875.054688 576.304688 C 850.335938 590.457031 887.429688 498.90625 912.152344 493.269531 " fill-opacity="1" fill-rule="nonzero"/><path fill="#fbd5c0" d="M 566.632812 592.179688 C 566.632812 592.179688 535.589844 581.617188 515.765625 547.011719 C 494.191406 509.441406 507.726562 486.027344 512 480.953125 C 523.660156 467.09375 541.675781 476 544.640625 480.953125 C 547.609375 485.910156 590.609375 563.957031 566.632812 592.179688 " fill-opacity="1" fill-rule="nonzero"/><path fill="#f8a29e" d="M 536.183594 493.269531 C 536.183594 493.269531 516.507812 495.792969 523.421875 523.480469 C 530.339844 551.199219 548.558594 562.148438 573.28125 576.304688 C 598.03125 590.457031 560.933594 498.90625 536.183594 493.269531 " fill-opacity="1" fill-rule="nonzero"/><path fill="#fbd5c0" d="M 912.152344 474.988281 C 912.152344 361.242188 828.195312 269.007812 724.597656 269.007812 C 621.027344 269.007812 537.015625 361.242188 537.015625 474.988281 C 537.015625 588.738281 621.027344 707.648438 724.597656 707.648438 C 821.933594 707.648438 912.152344 587.789062 912.152344 474.988281 " fill-opacity="1" fill-rule="nonzero"/><path fill="#23255d" d="M 741.484375 391.925781 C 741.484375 391.925781 776.769531 505.4375 909.480469 494.191406 C 909.480469 494.191406 932.65625 460.683594 924.820312 387.832031 C 915.980469 305.71875 843.242188 236.632812 724.597656 261.351562 C 724.597656 261.351562 713.765625 319.722656 741.484375 391.925781 " fill-opacity="1" fill-rule="nonzero"/><path fill="#23255d" d="M 747.417969 269.007812 C 747.417969 269.007812 752.34375 247.523438 734.539062 230.695312 C 716.734375 213.871094 480.957031 248.414062 537.015625 474.988281 C 537.015625 474.988281 591.976562 339.488281 737.507812 327.617188 L 747.417969 269.007812 " fill-opacity="1" fill-rule="nonzero"/></svg>