<svg xmlns="http://www.w3.org/2000/svg" xmlns:xlink="http://www.w3.org/1999/xlink" width="1920" zoomAndPan="magnify" viewBox="0 0 1440 1109.999945" height="1480" preserveAspectRatio="xMidYMid meet" version="1.0"><defs><g/><clipPath id="464a8200ea"><path d="M 1271 64 L 1413 64 L 1413 301.828125 L 1271 301.828125 Z M 1271 64 " clip-rule="nonzero"/></clipPath><clipPath id="88a9acb613"><path d="M 1 11.460938 L 267 11.460938 L 267 311.339844 L 1 311.339844 Z M 1 11.460938 " clip-rule="nonzero"/></clipPath><clipPath id="5bd51d5435"><path d="M 109.976562 137.707031 L 157.558594 137.707031 L 157.558594 185.289062 L 109.976562 185.289062 Z M 109.976562 137.707031 " clip-rule="nonzero"/></clipPath><clipPath id="fb458e4bf7"><path d="M 133.769531 137.707031 C 120.628906 137.707031 109.976562 148.359375 109.976562 161.496094 C 109.976562 174.636719 120.628906 185.289062 133.769531 185.289062 C 146.90625 185.289062 157.558594 174.636719 157.558594 161.496094 C 157.558594 148.359375 146.90625 137.707031 133.769531 137.707031 Z M 133.769531 137.707031 " clip-rule="nonzero"/></clipPath><clipPath id="4ae30d7164"><path d="M 0.976562 0.707031 L 48.558594 0.707031 L 48.558594 48.289062 L 0.976562 48.289062 Z M 0.976562 0.707031 " clip-rule="nonzero"/></clipPath><clipPath id="5ee55a6781"><path d="M 24.769531 0.707031 C 11.628906 0.707031 0.976562 11.359375 0.976562 24.496094 C 0.976562 37.636719 11.628906 48.289062 24.769531 48.289062 C 37.90625 48.289062 48.558594 37.636719 48.558594 24.496094 C 48.558594 11.359375 37.90625 0.707031 24.769531 0.707031 Z M 24.769531 0.707031 " clip-rule="nonzero"/></clipPath><clipPath id="b033a0216e"><rect x="0" width="49" y="0" height="49"/></clipPath><clipPath id="28d7a0414d"><path d="M 333 0.441406 L 1264 0.441406 L 1264 323 L 333 323 Z M 333 0.441406 " clip-rule="nonzero"/></clipPath><clipPath id="57e2ec23cc"><rect x="0" width="931" y="0" height="323"/></clipPath><clipPath id="5f88157c13"><path d="M 848 304 L 1378 304 L 1378 395.238281 L 848 395.238281 Z M 848 304 " clip-rule="nonzero"/></clipPath><clipPath id="9f3bda93e0"><rect x="0" width="530" y="0" height="92"/></clipPath><clipPath id="34dd2329c5"><rect x="0" width="1416" y="0" height="396"/></clipPath></defs><g transform="matrix(1, 0, 0, 1, 17, 355)"><g clip-path="url(#34dd2329c5)"><g clip-path="url(#464a8200ea)"><path fill="#004588" d="M 1406.039062 166.625 L 1310.945312 71.53125 C 1301.9375 62.523438 1287.304688 62.523438 1278.296875 71.53125 C 1269.289062 80.539062 1269.289062 95.171875 1278.296875 104.179688 L 1357.046875 182.96875 L 1278.296875 261.757812 C 1269.289062 270.765625 1269.289062 285.398438 1278.296875 294.40625 C 1282.660156 298.769531 1288.449219 301.171875 1294.601562 301.171875 C 1300.757812 301.171875 1306.585938 298.769531 1310.945312 294.40625 L 1406.039062 199.3125 C 1415.046875 190.304688 1415.046875 175.632812 1406.039062 166.625 Z M 1406.039062 166.625 " fill-opacity="1" fill-rule="nonzero"/></g><g clip-path="url(#88a9acb613)"><path fill="#04305e" d="M 133.628906 11.460938 C 104.574219 11.460938 91.003906 78.140625 88.144531 135.292969 C 79.570312 141.011719 71 146.722656 63.140625 152.4375 C 24.800781 122.195312 12.414062 100.050781 15.988281 93.621094 C 18.128906 90.046875 30.75 86 63.851562 95.527344 C 67.660156 96.71875 71.710938 94.574219 72.664062 90.765625 C 73.855469 86.953125 71.710938 82.902344 67.902344 81.949219 C 33.371094 71.949219 11.226562 73.378906 3.605469 86.476562 C -8.777344 108.148438 28.609375 143.152344 51.46875 161.488281 C 16.226562 189.828125 -6.398438 218.882812 3.605469 236.503906 C 7.890625 243.886719 16.941406 247.695312 30.039062 247.695312 C 40.277344 247.695312 52.902344 245.554688 67.664062 241.027344 C 71.476562 239.839844 73.617188 236.023438 72.429688 232.214844 C 71.238281 228.40625 67.425781 226.261719 63.613281 227.453125 C 30.511719 237.214844 17.890625 232.929688 15.75 229.359375 C 13.84375 226.023438 15.988281 214.359375 37.183594 193.164062 C 56.472656 173.636719 85.046875 152.679688 117.433594 133.867188 C 149.820312 115.054688 182.445312 101 208.878906 93.859375 C 237.929688 86.238281 248.886719 90.050781 250.789062 93.382812 C 254.363281 99.8125 241.980469 121.957031 203.640625 152.203125 C 193.640625 144.820312 183.164062 137.675781 172.445312 131.007812 C 169.113281 128.863281 164.582031 129.816406 162.679688 133.386719 C 160.535156 136.722656 161.488281 141.25 165.058594 143.15625 C 229.359375 183.402344 256.746094 219.597656 251.03125 229.121094 C 246.746094 236.503906 211.738281 236.265625 148.871094 205.546875 C 151.488281 204.117188 153.867188 202.6875 156.488281 201.257812 C 165.777344 195.78125 175.0625 190.066406 183.875 184.351562 C 187.207031 182.207031 188.164062 177.683594 185.78125 174.351562 C 183.398438 171.015625 179.109375 170.0625 175.777344 172.441406 C 167.203125 178.160156 158.394531 183.636719 149.105469 188.875 C 142.675781 192.449219 136.25 196.019531 129.820312 199.355469 C 126.246094 201.261719 125.054688 205.546875 126.722656 208.878906 C 127.195312 209.832031 127.914062 210.546875 128.628906 211.023438 C 128.867188 211.261719 129.105469 211.496094 129.582031 211.734375 L 129.820312 211.972656 C 159.824219 227.691406 189.351562 239.125 212.449219 244.363281 C 221.738281 246.507812 229.835938 247.457031 236.742188 247.457031 C 249.839844 247.457031 258.652344 243.648438 262.9375 236.265625 C 273.894531 218.644531 250.554688 189.351562 215.785156 161.488281 C 238.886719 142.914062 276.273438 108.148438 263.648438 86.476562 C 248.410156 60.28125 175.304688 84.332031 110.765625 121.480469 C 108.148438 122.910156 105.765625 124.339844 103.144531 126.007812 C 107.667969 61.234375 123.625 25.75 133.628906 25.75 C 137.675781 25.75 147.679688 34.5625 155.777344 68.140625 C 156.730469 71.953125 160.539062 74.332031 164.347656 73.378906 C 168.160156 72.425781 170.539062 68.617188 169.585938 64.804688 C 161.25 29.800781 148.628906 11.460938 133.628906 11.460938 Z M 94.808594 176.253906 C 90.761719 176.492188 87.90625 179.828125 87.90625 183.636719 C 89.335938 217.691406 94.097656 248.886719 101.242188 271.75 C 109.578125 298.183594 120.53125 311.515625 133.628906 311.515625 C 148.628906 311.515625 161.25 293.179688 169.585938 258.171875 C 170.539062 254.363281 168.160156 250.554688 164.347656 249.601562 C 160.539062 248.648438 156.730469 251.027344 155.777344 254.839844 C 147.679688 288.414062 137.675781 297.230469 133.628906 297.230469 C 122.671875 297.230469 105.292969 256.507812 102.195312 183.160156 C 101.957031 179.109375 98.621094 176.253906 94.808594 176.253906 Z M 94.808594 176.253906 " fill-opacity="1" fill-rule="nonzero"/></g><g clip-path="url(#5bd51d5435)"><g clip-path="url(#fb458e4bf7)"><g transform="matrix(1, 0, 0, 1, 109, 137)"><g clip-path="url(#b033a0216e)"><g clip-path="url(#4ae30d7164)"><g clip-path="url(#5ee55a6781)"><path fill="#02b1ee" d="M 0.976562 0.707031 L 48.558594 0.707031 L 48.558594 48.289062 L 0.976562 48.289062 Z M 0.976562 0.707031 " fill-opacity="1" fill-rule="nonzero"/></g></g></g></g></g></g><g clip-path="url(#28d7a0414d)"><g transform="matrix(1, 0, 0, 1, 333, 0)"><g clip-path="url(#57e2ec23cc)"><g fill="#004588" fill-opacity="1"><g transform="translate(0.681137, 251.658684)"><g><path d="M 74.578125 2.421875 C 62.910156 2.421875 52.53125 0.984375 43.4375 -1.890625 C 34.351562 -4.773438 26.78125 -8.554688 20.71875 -13.234375 C 14.65625 -17.910156 10.015625 -23.050781 6.796875 -28.65625 L 25.09375 -50.984375 L 27.96875 -50.984375 C 33.03125 -43.460938 39.453125 -37.476562 47.234375 -33.03125 C 55.023438 -28.582031 64.140625 -26.359375 74.578125 -26.359375 C 83.472656 -26.359375 90.179688 -28.234375 94.703125 -31.984375 C 99.234375 -35.742188 101.5 -40.925781 101.5 -47.53125 C 101.5 -51.519531 100.769531 -54.851562 99.3125 -57.53125 C 97.851562 -60.21875 95.4375 -62.519531 92.0625 -64.4375 C 88.6875 -66.363281 84.125 -68.015625 78.375 -69.390625 L 56.734375 -74.34375 C 41.617188 -77.789062 30.359375 -83.523438 22.953125 -91.546875 C 15.554688 -99.566406 11.859375 -109.984375 11.859375 -122.796875 C 11.859375 -132.304688 14.234375 -140.664062 18.984375 -147.875 C 23.742188 -155.09375 30.664062 -160.695312 39.75 -164.6875 C 48.84375 -168.675781 59.722656 -170.671875 72.390625 -170.671875 C 85.347656 -170.671875 96.445312 -168.960938 105.6875 -165.546875 C 114.9375 -162.128906 122.75 -156.894531 129.125 -149.84375 L 112.671875 -127.28125 L 109.78125 -127.28125 C 105.03125 -132.269531 99.582031 -136.007812 93.4375 -138.5 C 87.300781 -140.988281 80.285156 -142.234375 72.390625 -142.234375 C 63.253906 -142.234375 56.304688 -140.625 51.546875 -137.40625 C 46.796875 -134.1875 44.421875 -129.738281 44.421875 -124.0625 C 44.421875 -118.769531 46.085938 -114.550781 49.421875 -111.40625 C 52.765625 -108.257812 58.539062 -105.800781 66.75 -104.03125 L 88.84375 -99.4375 C 105.1875 -95.976562 117.039062 -90.125 124.40625 -81.875 C 131.769531 -73.632812 135.453125 -62.875 135.453125 -49.59375 C 135.453125 -39.082031 133.1875 -29.929688 128.65625 -22.140625 C 124.132812 -14.359375 117.304688 -8.316406 108.171875 -4.015625 C 99.046875 0.273438 87.847656 2.421875 74.578125 2.421875 Z M 74.578125 2.421875 "/></g></g></g><g fill="#004588" fill-opacity="1"><g transform="translate(145.218057, 251.658684)"><g><path d="M 74 2.421875 C 61.71875 2.421875 50.859375 -0.128906 41.421875 -5.234375 C 31.992188 -10.335938 24.628906 -17.835938 19.328125 -27.734375 C 14.035156 -37.628906 11.390625 -49.519531 11.390625 -63.40625 C 11.390625 -77.375 14.035156 -89.304688 19.328125 -99.203125 C 24.628906 -109.097656 31.957031 -116.597656 41.3125 -121.703125 C 50.675781 -126.804688 61.378906 -129.359375 73.421875 -129.359375 C 100.191406 -129.359375 117.335938 -119.648438 124.859375 -100.234375 L 103 -84.578125 L 100.578125 -84.578125 C 97.972656 -90.566406 94.578125 -95.019531 90.390625 -97.9375 C 86.210938 -100.851562 80.554688 -102.3125 73.421875 -102.3125 C 64.210938 -102.3125 57.035156 -99.125 51.890625 -92.75 C 46.753906 -86.382812 44.1875 -76.601562 44.1875 -63.40625 C 44.1875 -50.363281 46.796875 -40.640625 52.015625 -34.234375 C 57.234375 -27.828125 64.5625 -24.625 74 -24.625 C 80.90625 -24.625 86.753906 -26.484375 91.546875 -30.203125 C 96.335938 -33.929688 99.769531 -39.285156 101.84375 -46.265625 L 104.265625 -46.5 L 126.9375 -34.0625 C 123.71875 -23.320312 117.753906 -14.554688 109.046875 -7.765625 C 100.335938 -0.972656 88.65625 2.421875 74 2.421875 Z M 74 2.421875 "/></g></g></g><g fill="#004588" fill-opacity="1"><g transform="translate(276.060797, 251.658684)"><g><path d="M 18.296875 0 L 18.296875 -126.9375 L 49.25 -126.9375 L 49.25 -108.0625 L 51.671875 -107.59375 C 54.742188 -114.65625 58.769531 -119.835938 63.75 -123.140625 C 68.738281 -126.441406 74.800781 -128.09375 81.9375 -128.09375 C 89.144531 -128.09375 94.628906 -126.863281 98.390625 -124.40625 L 92.984375 -96.90625 L 90.5625 -96.4375 C 88.5 -97.28125 86.503906 -97.894531 84.578125 -98.28125 C 82.660156 -98.664062 80.320312 -98.859375 77.5625 -98.859375 C 68.664062 -98.859375 61.875 -95.726562 57.1875 -89.46875 C 52.507812 -83.21875 50.171875 -73.1875 50.171875 -59.375 L 50.171875 0 Z M 18.296875 0 "/></g></g></g><g fill="#004588" fill-opacity="1"><g transform="translate(375.602544, 251.658684)"><g><path d="M 28.078125 53.859375 C 22.628906 53.859375 17.695312 53.4375 13.28125 52.59375 C 8.875 51.75 5.289062 50.632812 2.53125 49.25 L 7.59375 23.484375 L 9.671875 22.78125 C 11.585938 23.78125 13.960938 24.585938 16.796875 25.203125 C 19.640625 25.816406 22.554688 26.125 25.546875 26.125 C 30.691406 26.125 34.96875 25.453125 38.375 24.109375 C 41.789062 22.765625 44.6875 20.539062 47.0625 17.4375 C 49.445312 14.332031 51.554688 10.015625 53.390625 4.484375 L 2.765625 -126.9375 L 36.140625 -126.9375 L 67.671875 -38.671875 L 70.4375 -38.671875 L 101.15625 -126.9375 L 133.609375 -126.9375 L 82.625 7.9375 C 78.5625 18.832031 74.09375 27.597656 69.21875 34.234375 C 64.34375 40.867188 58.585938 45.796875 51.953125 49.015625 C 45.316406 52.242188 37.359375 53.859375 28.078125 53.859375 Z M 28.078125 53.859375 "/></g></g></g><g fill="#04305e" fill-opacity="1"><g transform="translate(511.869341, 251.658684)"><g><path d="M 45.234375 -168.25 L 45.234375 -16.34375 L 126.25 -16.34375 L 126.25 0 L 25.4375 0 L 25.4375 -168.25 Z M 45.234375 -168.25 "/></g></g></g><g fill="#04305e" fill-opacity="1"><g transform="translate(645.243779, 251.658684)"><g><path d="M 52.359375 2.421875 C 39.859375 2.421875 30.097656 -0.835938 23.078125 -7.359375 C 16.054688 -13.878906 12.546875 -23.203125 12.546875 -35.328125 C 12.546875 -42.847656 14.097656 -49.195312 17.203125 -54.375 C 20.304688 -59.550781 25.117188 -63.769531 31.640625 -67.03125 C 38.160156 -70.289062 46.679688 -72.804688 57.203125 -74.578125 C 66.398438 -76.109375 73.394531 -77.832031 78.1875 -79.75 C 82.988281 -81.664062 86.210938 -83.8125 87.859375 -86.1875 C 89.515625 -88.570312 90.34375 -91.566406 90.34375 -95.171875 C 90.34375 -100.921875 88.363281 -105.332031 84.40625 -108.40625 C 80.457031 -111.476562 74.109375 -113.015625 65.359375 -113.015625 C 57.148438 -113.015625 50.109375 -111.421875 44.234375 -108.234375 C 38.367188 -105.046875 32.984375 -100.304688 28.078125 -94.015625 L 25.78125 -94.015625 L 16.578125 -107.03125 C 21.941406 -113.851562 28.765625 -119.28125 37.046875 -123.3125 C 45.335938 -127.34375 54.773438 -129.359375 65.359375 -129.359375 C 80.328125 -129.359375 91.359375 -126.078125 98.453125 -119.515625 C 105.546875 -112.953125 109.09375 -103.878906 109.09375 -92.296875 L 109.09375 -24.96875 C 109.09375 -17.914062 112.085938 -14.390625 118.078125 -14.390625 C 120.066406 -14.390625 121.984375 -14.734375 123.828125 -15.421875 L 125.4375 -14.953125 L 127.625 -1.953125 C 126.238281 -1.035156 124.414062 -0.328125 122.15625 0.171875 C 119.894531 0.671875 117.578125 0.921875 115.203125 0.921875 C 108.210938 0.921875 102.929688 -0.609375 99.359375 -3.671875 C 95.796875 -6.742188 93.519531 -11.273438 92.53125 -17.265625 L 90.109375 -17.5 C 86.503906 -10.820312 81.628906 -5.832031 75.484375 -2.53125 C 69.347656 0.769531 61.640625 2.421875 52.359375 2.421875 Z M 56.5 -12.546875 C 63.5625 -12.546875 69.679688 -14.175781 74.859375 -17.4375 C 80.035156 -20.695312 84.003906 -25.28125 86.765625 -31.1875 C 89.535156 -37.09375 90.921875 -43.921875 90.921875 -51.671875 L 90.921875 -67.78125 L 88.734375 -68.25 C 85.890625 -66.25 82.429688 -64.578125 78.359375 -63.234375 C 74.296875 -61.890625 68.625 -60.679688 61.34375 -59.609375 C 53.976562 -58.609375 48.125 -57.070312 43.78125 -55 C 39.445312 -52.9375 36.359375 -50.3125 34.515625 -47.125 C 32.679688 -43.9375 31.765625 -40.003906 31.765625 -35.328125 C 31.765625 -27.890625 33.945312 -22.234375 38.3125 -18.359375 C 42.6875 -14.484375 48.75 -12.546875 56.5 -12.546875 Z M 56.5 -12.546875 "/></g></g></g><g fill="#04305e" fill-opacity="1"><g transform="translate(776.546828, 251.658684)"><g><path d="M 84.359375 2.421875 C 74.921875 2.421875 66.726562 0.597656 59.78125 -3.046875 C 52.84375 -6.691406 47.335938 -11.507812 43.265625 -17.5 L 40.859375 -17.03125 L 40.859375 0 L 22.09375 0 L 22.09375 -177.921875 L 40.859375 -177.921875 L 40.859375 -107.953125 L 43.265625 -107.484375 C 52.929688 -122.066406 66.972656 -129.359375 85.390625 -129.359375 C 95.828125 -129.359375 104.957031 -126.941406 112.78125 -122.109375 C 120.601562 -117.273438 126.679688 -109.925781 131.015625 -100.0625 C 135.347656 -90.207031 137.515625 -77.988281 137.515625 -63.40625 C 137.515625 -48.988281 135.234375 -36.847656 130.671875 -26.984375 C 126.109375 -17.128906 119.835938 -9.765625 111.859375 -4.890625 C 103.878906 -0.015625 94.710938 2.421875 84.359375 2.421875 Z M 79.859375 -14.390625 C 105.179688 -14.390625 117.84375 -30.726562 117.84375 -63.40625 C 117.84375 -80.363281 114.539062 -92.789062 107.9375 -100.6875 C 101.34375 -108.59375 91.984375 -112.546875 79.859375 -112.546875 C 67.972656 -112.546875 58.5 -108.5 51.4375 -100.40625 C 44.382812 -92.3125 40.859375 -79.976562 40.859375 -63.40625 C 40.859375 -46.914062 44.382812 -34.625 51.4375 -26.53125 C 58.5 -18.4375 67.972656 -14.390625 79.859375 -14.390625 Z M 79.859375 -14.390625 "/></g></g></g></g></g></g><g clip-path="url(#5f88157c13)"><g transform="matrix(1, 0, 0, 1, 848, 304)"><g clip-path="url(#9f3bda93e0)"><g fill="#737373" fill-opacity="1"><g transform="translate(0.588229, 71.078836)"><g><path d="M 7.09375 0 L 7.09375 -46.9375 L 24.875 -46.9375 C 27.769531 -46.9375 30.222656 -46.472656 32.234375 -45.546875 C 34.242188 -44.628906 35.753906 -43.320312 36.765625 -41.625 C 37.785156 -39.925781 38.296875 -37.898438 38.296875 -35.546875 C 38.296875 -33.503906 37.742188 -31.660156 36.640625 -30.015625 C 35.546875 -28.367188 33.96875 -27.085938 31.90625 -26.171875 L 31.90625 -25.484375 C 35.03125 -24.710938 37.398438 -23.3125 39.015625 -21.28125 C 40.640625 -19.25 41.453125 -16.691406 41.453125 -13.609375 C 41.453125 -9.242188 40.171875 -5.882812 37.609375 -3.53125 C 35.054688 -1.175781 31.265625 0 26.234375 0 Z M 24.625 -27.21875 C 27.21875 -27.21875 29.226562 -27.894531 30.65625 -29.25 C 32.09375 -30.613281 32.8125 -32.484375 32.8125 -34.859375 C 32.8125 -37.367188 32.117188 -39.25 30.734375 -40.5 C 29.359375 -41.75 27.320312 -42.375 24.625 -42.375 L 12.609375 -42.375 L 12.609375 -27.21875 Z M 25.8125 -4.5625 C 32.488281 -4.5625 35.828125 -7.578125 35.828125 -13.609375 C 35.828125 -19.648438 32.488281 -22.671875 25.8125 -22.671875 L 12.609375 -22.671875 L 12.609375 -4.5625 Z M 25.8125 -4.5625 "/></g></g></g><g fill="#737373" fill-opacity="1"><g transform="translate(45.752391, 71.078836)"><g><path d="M 7.09375 15.03125 C 5.894531 15.03125 4.773438 14.925781 3.734375 14.71875 C 2.703125 14.519531 1.8125 14.238281 1.0625 13.875 L 2.015625 9.734375 L 2.59375 9.53125 C 3.113281 9.789062 3.757812 10.007812 4.53125 10.1875 C 5.300781 10.375 6.09375 10.46875 6.90625 10.46875 C 8.332031 10.46875 9.515625 10.273438 10.453125 9.890625 C 11.398438 9.503906 12.210938 8.863281 12.890625 7.96875 C 13.566406 7.082031 14.191406 5.859375 14.765625 4.296875 L 16.015625 0.828125 L 1.796875 -35.40625 L 7.453125 -35.40625 L 18.59375 -6.515625 L 19.203125 -6.515625 L 29.984375 -35.40625 L 35.34375 -35.40625 L 19.515625 5.546875 C 18.617188 7.816406 17.613281 9.640625 16.5 11.015625 C 15.382812 12.398438 14.066406 13.414062 12.546875 14.0625 C 11.035156 14.707031 9.21875 15.03125 7.09375 15.03125 Z M 7.09375 15.03125 "/></g></g></g><g fill="#737373" fill-opacity="1"><g transform="translate(83.084246, 71.078836)"><g/></g></g><g fill="#737373" fill-opacity="1"><g transform="translate(99.198254, 71.078836)"><g><path d="M 7.09375 0 L 7.09375 -46.9375 L 24.140625 -46.9375 C 27.285156 -46.9375 29.925781 -46.414062 32.0625 -45.375 C 34.207031 -44.34375 35.816406 -42.878906 36.890625 -40.984375 C 37.960938 -39.085938 38.5 -36.84375 38.5 -34.25 C 38.5 -31.34375 37.769531 -28.941406 36.3125 -27.046875 C 34.851562 -25.148438 32.582031 -23.734375 29.5 -22.796875 L 29.5 -22.125 C 31.019531 -21.519531 32.257812 -20.578125 33.21875 -19.296875 C 34.1875 -18.015625 35.078125 -16.097656 35.890625 -13.546875 L 40.234375 0 L 34.546875 0 L 29.859375 -14.34375 C 29.296875 -16.039062 28.648438 -17.367188 27.921875 -18.328125 C 27.203125 -19.296875 26.285156 -19.992188 25.171875 -20.421875 C 24.054688 -20.847656 22.644531 -21.0625 20.9375 -21.0625 L 12.609375 -21.0625 L 12.609375 0 Z M 24.015625 -25.75 C 26.941406 -25.75 29.125 -26.425781 30.5625 -27.78125 C 32 -29.144531 32.71875 -31.21875 32.71875 -34 C 32.71875 -36.78125 32 -38.847656 30.5625 -40.203125 C 29.125 -41.566406 26.941406 -42.25 24.015625 -42.25 L 12.609375 -42.25 L 12.609375 -25.75 Z M 24.015625 -25.75 "/></g></g></g><g fill="#737373" fill-opacity="1"><g transform="translate(141.730033, 71.078836)"><g><path d="M 20.328125 0.671875 C 16.984375 0.671875 14.070312 -0.03125 11.59375 -1.4375 C 9.125 -2.851562 7.222656 -4.9375 5.890625 -7.6875 C 4.554688 -10.4375 3.890625 -13.769531 3.890625 -17.6875 C 3.890625 -21.601562 4.554688 -24.941406 5.890625 -27.703125 C 7.222656 -30.460938 9.125 -32.546875 11.59375 -33.953125 C 14.070312 -35.367188 16.984375 -36.078125 20.328125 -36.078125 C 23.660156 -36.078125 26.5625 -35.367188 29.03125 -33.953125 C 31.507812 -32.546875 33.414062 -30.460938 34.75 -27.703125 C 36.09375 -24.941406 36.765625 -21.601562 36.765625 -17.6875 C 36.765625 -13.769531 36.09375 -10.4375 34.75 -7.6875 C 33.414062 -4.9375 31.507812 -2.851562 29.03125 -1.4375 C 26.5625 -0.03125 23.660156 0.671875 20.328125 0.671875 Z M 20.328125 -4.015625 C 23.859375 -4.015625 26.554688 -5.125 28.421875 -7.34375 C 30.296875 -9.570312 31.234375 -13.019531 31.234375 -17.6875 C 31.234375 -22.375 30.296875 -25.828125 28.421875 -28.046875 C 26.554688 -30.273438 23.859375 -31.390625 20.328125 -31.390625 C 16.796875 -31.390625 14.085938 -30.269531 12.203125 -28.03125 C 10.316406 -25.800781 9.375 -22.351562 9.375 -17.6875 C 9.375 -13.019531 10.316406 -9.570312 12.203125 -7.34375 C 14.085938 -5.125 16.796875 -4.015625 20.328125 -4.015625 Z M 20.328125 -4.015625 "/></g></g></g><g fill="#737373" fill-opacity="1"><g transform="translate(181.693905, 71.078836)"><g><path d="M 7.09375 15.03125 C 5.894531 15.03125 4.773438 14.925781 3.734375 14.71875 C 2.703125 14.519531 1.8125 14.238281 1.0625 13.875 L 2.015625 9.734375 L 2.59375 9.53125 C 3.113281 9.789062 3.757812 10.007812 4.53125 10.1875 C 5.300781 10.375 6.09375 10.46875 6.90625 10.46875 C 8.332031 10.46875 9.515625 10.273438 10.453125 9.890625 C 11.398438 9.503906 12.210938 8.863281 12.890625 7.96875 C 13.566406 7.082031 14.191406 5.859375 14.765625 4.296875 L 16.015625 0.828125 L 1.796875 -35.40625 L 7.453125 -35.40625 L 18.59375 -6.515625 L 19.203125 -6.515625 L 29.984375 -35.40625 L 35.34375 -35.40625 L 19.515625 5.546875 C 18.617188 7.816406 17.613281 9.640625 16.5 11.015625 C 15.382812 12.398438 14.066406 13.414062 12.546875 14.0625 C 11.035156 14.707031 9.21875 15.03125 7.09375 15.03125 Z M 7.09375 15.03125 "/></g></g></g><g fill="#737373" fill-opacity="1"><g transform="translate(219.02576, 71.078836)"><g/></g></g><g fill="#737373" fill-opacity="1"><g transform="translate(235.139769, 71.078836)"><g><path d="M 20.515625 0.671875 C 17.554688 0.671875 14.90625 0.269531 12.5625 -0.53125 C 10.21875 -1.332031 8.265625 -2.382812 6.703125 -3.6875 C 5.140625 -5 3.972656 -6.4375 3.203125 -8 L 6.234375 -11.65625 L 7.03125 -11.65625 C 9.9375 -6.75 14.429688 -4.296875 20.515625 -4.296875 C 24.046875 -4.296875 26.671875 -5.035156 28.390625 -6.515625 C 30.117188 -7.992188 30.984375 -10.050781 30.984375 -12.6875 C 30.984375 -14.226562 30.695312 -15.53125 30.125 -16.59375 C 29.5625 -17.664062 28.625 -18.582031 27.3125 -19.34375 C 26.007812 -20.101562 24.234375 -20.757812 21.984375 -21.3125 L 16.5 -22.671875 C 12.414062 -23.648438 9.40625 -25.210938 7.46875 -27.359375 C 5.53125 -29.515625 4.5625 -32.242188 4.5625 -35.546875 C 4.5625 -37.878906 5.160156 -39.957031 6.359375 -41.78125 C 7.554688 -43.613281 9.3125 -45.039062 11.625 -46.0625 C 13.9375 -47.09375 16.695312 -47.609375 19.90625 -47.609375 C 23.4375 -47.609375 26.414062 -47.109375 28.84375 -46.109375 C 31.269531 -45.117188 33.210938 -43.628906 34.671875 -41.640625 L 31.96875 -38.015625 L 31.171875 -38.015625 C 29.828125 -39.660156 28.234375 -40.867188 26.390625 -41.640625 C 24.546875 -42.410156 22.382812 -42.796875 19.90625 -42.796875 C 16.65625 -42.796875 14.195312 -42.160156 12.53125 -40.890625 C 10.875 -39.628906 10.046875 -37.890625 10.046875 -35.671875 C 10.046875 -33.546875 10.65625 -31.859375 11.875 -30.609375 C 13.09375 -29.359375 15.148438 -28.390625 18.046875 -27.703125 L 23.65625 -26.359375 C 28.21875 -25.285156 31.519531 -23.640625 33.5625 -21.421875 C 35.601562 -19.210938 36.625 -16.382812 36.625 -12.9375 C 36.625 -10.28125 36.03125 -7.929688 34.84375 -5.890625 C 33.65625 -3.847656 31.851562 -2.242188 29.4375 -1.078125 C 27.019531 0.0859375 24.046875 0.671875 20.515625 0.671875 Z M 20.515625 0.671875 "/></g></g></g><g fill="#737373" fill-opacity="1"><g transform="translate(275.36059, 71.078836)"><g><path d="M 14.609375 0.671875 C 11.117188 0.671875 8.394531 -0.234375 6.4375 -2.046875 C 4.476562 -3.867188 3.5 -6.472656 3.5 -9.859375 C 3.5 -11.953125 3.929688 -13.722656 4.796875 -15.171875 C 5.660156 -16.617188 7.003906 -17.796875 8.828125 -18.703125 C 10.648438 -19.609375 13.023438 -20.304688 15.953125 -20.796875 C 18.523438 -21.234375 20.476562 -21.71875 21.8125 -22.25 C 23.15625 -22.78125 24.054688 -23.378906 24.515625 -24.046875 C 24.972656 -24.710938 25.203125 -25.546875 25.203125 -26.546875 C 25.203125 -28.148438 24.648438 -29.378906 23.546875 -30.234375 C 22.441406 -31.097656 20.671875 -31.53125 18.234375 -31.53125 C 15.941406 -31.53125 13.976562 -31.082031 12.34375 -30.1875 C 10.707031 -29.300781 9.203125 -27.984375 7.828125 -26.234375 L 7.1875 -26.234375 L 4.625 -29.859375 C 6.125 -31.765625 8.03125 -33.273438 10.34375 -34.390625 C 12.65625 -35.515625 15.285156 -36.078125 18.234375 -36.078125 C 22.410156 -36.078125 25.488281 -35.160156 27.46875 -33.328125 C 29.445312 -31.503906 30.4375 -28.976562 30.4375 -25.75 L 30.4375 -6.96875 C 30.4375 -5 31.269531 -4.015625 32.9375 -4.015625 C 33.5 -4.015625 34.035156 -4.109375 34.546875 -4.296875 L 35 -4.171875 L 35.609375 -0.546875 C 35.222656 -0.285156 34.710938 -0.0859375 34.078125 0.046875 C 33.441406 0.179688 32.796875 0.25 32.140625 0.25 C 30.191406 0.25 28.71875 -0.175781 27.71875 -1.03125 C 26.726562 -1.882812 26.09375 -3.144531 25.8125 -4.8125 L 25.140625 -4.875 C 24.128906 -3.019531 22.769531 -1.628906 21.0625 -0.703125 C 19.351562 0.210938 17.203125 0.671875 14.609375 0.671875 Z M 15.765625 -3.5 C 17.734375 -3.5 19.4375 -3.953125 20.875 -4.859375 C 22.320312 -5.773438 23.429688 -7.054688 24.203125 -8.703125 C 24.972656 -10.347656 25.359375 -12.253906 25.359375 -14.421875 L 25.359375 -18.90625 L 24.75 -19.03125 C 23.957031 -18.476562 22.992188 -18.015625 21.859375 -17.640625 C 20.722656 -17.265625 19.140625 -16.925781 17.109375 -16.625 C 15.054688 -16.351562 13.425781 -15.925781 12.21875 -15.34375 C 11.007812 -14.769531 10.144531 -14.035156 9.625 -13.140625 C 9.113281 -12.253906 8.859375 -11.160156 8.859375 -9.859375 C 8.859375 -7.773438 9.46875 -6.191406 10.6875 -5.109375 C 11.90625 -4.035156 13.597656 -3.5 15.765625 -3.5 Z M 15.765625 -3.5 "/></g></g></g><g fill="#737373" fill-opacity="1"><g transform="translate(311.986254, 71.078836)"><g><path d="M 6.171875 0 L 6.171875 -35.40625 L 11.140625 -35.40625 L 11.140625 -29.859375 L 11.8125 -29.703125 C 12.988281 -31.773438 14.488281 -33.351562 16.3125 -34.4375 C 18.144531 -35.53125 20.378906 -36.078125 23.015625 -36.078125 C 27.273438 -36.078125 30.363281 -34.988281 32.28125 -32.8125 C 34.195312 -30.644531 35.15625 -27.304688 35.15625 -22.796875 L 35.15625 0 L 29.921875 0 L 29.921875 -22.671875 C 29.921875 -24.804688 29.644531 -26.519531 29.09375 -27.8125 C 28.550781 -29.113281 27.707031 -30.054688 26.5625 -30.640625 C 25.414062 -31.234375 23.914062 -31.53125 22.0625 -31.53125 C 18.863281 -31.53125 16.285156 -30.472656 14.328125 -28.359375 C 12.367188 -26.253906 11.390625 -22.859375 11.390625 -18.171875 L 11.390625 0 Z M 6.171875 0 "/></g></g></g><g fill="#737373" fill-opacity="1"><g transform="translate(352.752768, 71.078836)"><g><path d="M 18.359375 0.671875 C 15.515625 0.671875 13.003906 -0.00390625 10.828125 -1.359375 C 8.660156 -2.722656 6.960938 -4.773438 5.734375 -7.515625 C 4.503906 -10.253906 3.890625 -13.644531 3.890625 -17.6875 C 3.890625 -21.726562 4.53125 -25.125 5.8125 -27.875 C 7.09375 -30.632812 8.863281 -32.691406 11.125 -34.046875 C 13.382812 -35.398438 16 -36.078125 18.96875 -36.078125 C 21.320312 -36.078125 23.441406 -35.632812 25.328125 -34.75 C 27.210938 -33.863281 28.828125 -32.40625 30.171875 -30.375 L 30.859375 -30.5 L 30.859375 -49.640625 L 36.078125 -49.640625 L 36.078125 0 L 30.859375 0 L 30.859375 -5.171875 L 30.171875 -5.296875 C 29.015625 -3.546875 27.445312 -2.113281 25.46875 -1 C 23.488281 0.113281 21.117188 0.671875 18.359375 0.671875 Z M 20 -4.015625 C 23.289062 -4.015625 25.921875 -5.140625 27.890625 -7.390625 C 29.867188 -9.648438 30.859375 -13.082031 30.859375 -17.6875 C 30.859375 -22.3125 29.867188 -25.75 27.890625 -28 C 25.921875 -30.257812 23.289062 -31.390625 20 -31.390625 C 16.59375 -31.390625 13.96875 -30.285156 12.125 -28.078125 C 10.289062 -25.878906 9.375 -22.414062 9.375 -17.6875 C 9.375 -8.570312 12.914062 -4.015625 20 -4.015625 Z M 20 -4.015625 "/></g></g></g><g fill="#737373" fill-opacity="1"><g transform="translate(395.027964, 71.078836)"><g><path d="M 20.328125 0.671875 C 16.984375 0.671875 14.070312 -0.03125 11.59375 -1.4375 C 9.125 -2.851562 7.222656 -4.9375 5.890625 -7.6875 C 4.554688 -10.4375 3.890625 -13.769531 3.890625 -17.6875 C 3.890625 -21.601562 4.554688 -24.941406 5.890625 -27.703125 C 7.222656 -30.460938 9.125 -32.546875 11.59375 -33.953125 C 14.070312 -35.367188 16.984375 -36.078125 20.328125 -36.078125 C 23.660156 -36.078125 26.5625 -35.367188 29.03125 -33.953125 C 31.507812 -32.546875 33.414062 -30.460938 34.75 -27.703125 C 36.09375 -24.941406 36.765625 -21.601562 36.765625 -17.6875 C 36.765625 -13.769531 36.09375 -10.4375 34.75 -7.6875 C 33.414062 -4.9375 31.507812 -2.851562 29.03125 -1.4375 C 26.5625 -0.03125 23.660156 0.671875 20.328125 0.671875 Z M 20.328125 -4.015625 C 23.859375 -4.015625 26.554688 -5.125 28.421875 -7.34375 C 30.296875 -9.570312 31.234375 -13.019531 31.234375 -17.6875 C 31.234375 -22.375 30.296875 -25.828125 28.421875 -28.046875 C 26.554688 -30.273438 23.859375 -31.390625 20.328125 -31.390625 C 16.796875 -31.390625 14.085938 -30.269531 12.203125 -28.03125 C 10.316406 -25.800781 9.375 -22.351562 9.375 -17.6875 C 9.375 -13.019531 10.316406 -9.570312 12.203125 -7.34375 C 14.085938 -5.125 16.796875 -4.015625 20.328125 -4.015625 Z M 20.328125 -4.015625 "/></g></g></g><g fill="#737373" fill-opacity="1"><g transform="translate(434.991836, 71.078836)"><g><path d="M 22.40625 0 L 15.21875 0 L 1.734375 -35.40625 L 7.390625 -35.40625 L 18.53125 -5.96875 L 19.265625 -5.96875 L 30.3125 -35.40625 L 35.828125 -35.40625 Z M 22.40625 0 "/></g></g></g><g fill="#737373" fill-opacity="1"><g transform="translate(471.842045, 71.078836)"><g><path d="M 14.609375 0.671875 C 11.117188 0.671875 8.394531 -0.234375 6.4375 -2.046875 C 4.476562 -3.867188 3.5 -6.472656 3.5 -9.859375 C 3.5 -11.953125 3.929688 -13.722656 4.796875 -15.171875 C 5.660156 -16.617188 7.003906 -17.796875 8.828125 -18.703125 C 10.648438 -19.609375 13.023438 -20.304688 15.953125 -20.796875 C 18.523438 -21.234375 20.476562 -21.71875 21.8125 -22.25 C 23.15625 -22.78125 24.054688 -23.378906 24.515625 -24.046875 C 24.972656 -24.710938 25.203125 -25.546875 25.203125 -26.546875 C 25.203125 -28.148438 24.648438 -29.378906 23.546875 -30.234375 C 22.441406 -31.097656 20.671875 -31.53125 18.234375 -31.53125 C 15.941406 -31.53125 13.976562 -31.082031 12.34375 -30.1875 C 10.707031 -29.300781 9.203125 -27.984375 7.828125 -26.234375 L 7.1875 -26.234375 L 4.625 -29.859375 C 6.125 -31.765625 8.03125 -33.273438 10.34375 -34.390625 C 12.65625 -35.515625 15.285156 -36.078125 18.234375 -36.078125 C 22.410156 -36.078125 25.488281 -35.160156 27.46875 -33.328125 C 29.445312 -31.503906 30.4375 -28.976562 30.4375 -25.75 L 30.4375 -6.96875 C 30.4375 -5 31.269531 -4.015625 32.9375 -4.015625 C 33.5 -4.015625 34.035156 -4.109375 34.546875 -4.296875 L 35 -4.171875 L 35.609375 -0.546875 C 35.222656 -0.285156 34.710938 -0.0859375 34.078125 0.046875 C 33.441406 0.179688 32.796875 0.25 32.140625 0.25 C 30.191406 0.25 28.71875 -0.175781 27.71875 -1.03125 C 26.726562 -1.882812 26.09375 -3.144531 25.8125 -4.8125 L 25.140625 -4.875 C 24.128906 -3.019531 22.769531 -1.628906 21.0625 -0.703125 C 19.351562 0.210938 17.203125 0.671875 14.609375 0.671875 Z M 15.765625 -3.5 C 17.734375 -3.5 19.4375 -3.953125 20.875 -4.859375 C 22.320312 -5.773438 23.429688 -7.054688 24.203125 -8.703125 C 24.972656 -10.347656 25.359375 -12.253906 25.359375 -14.421875 L 25.359375 -18.90625 L 24.75 -19.03125 C 23.957031 -18.476562 22.992188 -18.015625 21.859375 -17.640625 C 20.722656 -17.265625 19.140625 -16.925781 17.109375 -16.625 C 15.054688 -16.351562 13.425781 -15.925781 12.21875 -15.34375 C 11.007812 -14.769531 10.144531 -14.035156 9.625 -13.140625 C 9.113281 -12.253906 8.859375 -11.160156 8.859375 -9.859375 C 8.859375 -7.773438 9.46875 -6.191406 10.6875 -5.109375 C 11.90625 -4.035156 13.597656 -3.5 15.765625 -3.5 Z M 15.765625 -3.5 "/></g></g></g><g fill="#737373" fill-opacity="1"><g transform="translate(508.467708, 71.078836)"><g><path d="M 14.09375 0.671875 C 11.59375 0.671875 9.625 -0.0351562 8.1875 -1.453125 C 6.75 -2.878906 6.03125 -5.003906 6.03125 -7.828125 L 6.03125 -49.640625 L 11.265625 -49.640625 L 11.265625 -8.1875 C 11.265625 -6.707031 11.546875 -5.640625 12.109375 -4.984375 C 12.679688 -4.335938 13.566406 -4.015625 14.765625 -4.015625 C 15.492188 -4.015625 16.234375 -4.128906 16.984375 -4.359375 L 17.4375 -4.234375 L 18.046875 -0.125 C 17.660156 0.125 17.109375 0.316406 16.390625 0.453125 C 15.671875 0.597656 14.90625 0.671875 14.09375 0.671875 Z M 14.09375 0.671875 "/></g></g></g></g></g></g></g></g></svg>